<svg width="160" height="268" viewBox="0 0 160 268" fill="none" xmlns="http://www.w3.org/2000/svg">
<path opacity="0.8" d="M120.121 144.598C121.141 143.309 120.24 141.119 118.614 141.066C117.435 141.025 115.231 142.33 114.365 143.105C112.984 141.227 111.408 141.745 111.408 141.745C108.341 143.213 110.234 145.373 110.234 145.373L110.169 145.423C109.974 145.358 109.757 145.36 109.568 145.448L105.038 147.495C104.561 147.711 104.372 148.229 104.627 148.646L104.806 148.943L103.526 149.78L98.0676 141.667C98.2166 139.985 97.6713 138.25 96.414 136.925C95.2728 135.723 93.758 135.089 92.2204 135.021C90.2385 133.483 87.9436 133.402 87.9436 133.402H87.522H86.6686C88.1759 131.929 89.0974 129.965 89.0974 127.808V125.746C89.0974 125.743 89.0974 125.741 89.0974 125.741C89.0974 125.738 89.0974 125.738 89.0974 125.736V124.72C89.8169 124.614 90.539 124.232 91.0868 123.599C92.1851 122.331 92.1851 120.539 91.0843 119.593C90.5213 119.108 89.7765 118.942 89.0393 119.065C89.0242 118.935 89.004 118.804 88.9812 118.676C89.6932 118.304 90.1805 117.564 90.1805 116.707C90.1805 116.056 89.8977 115.472 89.4508 115.068C89.8977 114.663 90.1805 114.079 90.1805 113.428C90.1805 113.426 90.1805 113.423 90.1805 113.421C90.1805 113.418 90.1805 113.416 90.1805 113.413C90.1805 112.186 89.1832 111.193 87.9512 111.193C87.9411 111.193 87.9335 111.193 87.9234 111.196C87.9385 111.087 87.9512 110.979 87.9512 110.866C87.9512 110.864 87.9512 110.861 87.9512 110.859C87.9512 110.856 87.9512 110.854 87.9512 110.851C87.9512 109.624 86.9539 108.631 85.7219 108.631C84.8332 108.631 84.0682 109.151 83.7097 109.901C83.3537 109.149 82.5862 108.628 81.6975 108.628C80.8088 108.628 80.0438 109.149 79.6853 109.898C79.3268 109.149 78.5618 108.628 77.6731 108.628C76.9763 108.628 76.3552 108.945 75.9462 109.446C75.5372 108.945 74.9161 108.628 74.2193 108.628C72.9872 108.628 71.99 109.622 71.99 110.849C71.99 110.851 71.99 110.854 71.99 110.856C71.99 110.859 71.99 110.861 71.99 110.864C71.99 110.977 72.0001 111.085 72.0178 111.193C72.0077 111.193 72.0001 111.191 71.99 111.191C70.7579 111.191 69.7607 112.184 69.7607 113.411C69.7607 113.413 69.7607 113.416 69.7607 113.418C69.7607 113.421 69.7607 113.423 69.7607 113.426C69.7607 114.077 70.0434 114.66 70.4903 115.065C70.0434 115.47 69.7607 116.053 69.7607 116.704C69.7607 117.137 69.8869 117.539 70.104 117.879C69.9046 118.256 69.7102 118.698 69.6395 119.096C69.2835 119.181 68.9502 119.344 68.6624 119.591C67.5642 120.536 67.5617 122.329 68.6599 123.596C68.9402 123.918 69.2633 124.174 69.6092 124.363C69.6092 126.571 69.6092 128.665 69.6092 128.665C69.6092 128.665 69.7657 130.242 70.6342 130.083V124.715C70.6393 124.715 70.6443 124.718 70.6494 124.718V125.733C70.6494 125.736 70.6494 125.738 70.6494 125.738C70.6494 125.741 70.6494 125.743 70.6494 125.743V127.805C70.6494 129.962 71.5709 131.926 73.0781 133.4H71.5507H70.5307C70.5307 133.4 68.0111 133.488 65.9711 135.248C65.3046 135.001 64.585 134.865 63.8327 134.865C63.7797 134.865 63.7266 134.868 63.6736 134.87C63.6105 134.868 63.5449 134.865 63.4817 134.865C60.2577 134.865 57.6421 137.606 57.6421 140.985C57.6421 141.689 57.7557 142.363 57.9653 142.992L54.4383 158.364C54.4484 158.374 54.4635 158.384 54.4736 158.394C54.4509 158.588 54.4357 158.782 54.4357 158.98C54.4357 159.083 54.4408 159.189 54.4458 159.292H54.4408V170.209H54.3246C54.307 171.492 54.2944 172.379 54.2944 172.379C53.4561 173.219 53.4385 175.718 53.4385 175.718C53.9232 181.898 59.5129 181.408 59.5129 181.408C60.038 182.964 62.381 183.415 63.3202 182.092C64.0018 181.132 64.118 178.579 63.9412 177.433C66.2842 177.315 66.7184 175.718 66.7184 175.718C67.1703 172.359 64.3073 172.749 64.3073 172.749L64.2745 172.223V170.539C64.277 170.539 64.2821 170.539 64.2846 170.539H73.5099V173.36C73.5099 173.541 73.5351 173.717 73.5831 173.883C73.5351 174.049 73.5099 174.225 73.5099 174.406V183.563V185.016V187.9H81.142H83.1542H90.7864C90.6324 183.404 85.5779 183.56 85.5779 183.56V174.403C85.5779 174.222 85.5527 174.046 85.5047 173.88C85.5527 173.714 85.5779 173.538 85.5779 173.357V170.536H94.1897C94.6643 170.536 95.0481 170.154 95.0481 169.681C95.0481 169.644 95.0405 169.611 95.038 169.576H95.0481V156.305V155.764L96.7119 158.575C96.8432 158.97 97.0224 159.355 97.2623 159.72C98.7544 161.982 101.807 162.613 104.079 161.128C104.165 161.07 104.251 161.009 104.334 160.949L104.336 160.954L109.929 157.301C110.211 157.53 110.631 157.532 110.964 157.276L114.892 154.238C114.943 154.201 114.983 154.155 115.021 154.108C115.253 153.959 115.387 153.876 115.387 153.876C116.551 154.113 118.659 152.755 118.659 152.755C123.585 148.963 120.121 144.598 120.121 144.598ZM70.6368 118.525V118.464C70.6519 118.475 70.6645 118.49 70.6797 118.5L70.6368 118.525ZM81.142 184.37C79.6752 183.513 77.9458 183.565 77.9458 183.565V174.408C77.9458 174.227 77.9205 174.051 77.8725 173.885C77.9205 173.719 77.9458 173.543 77.9458 173.362V167.733C78.5113 167.816 79.0996 167.858 79.7004 167.858C80.1927 167.858 80.675 167.828 81.1446 167.773V173.362C81.1446 173.543 81.1698 173.719 81.2178 173.885C81.1698 174.051 81.1446 174.227 81.1446 174.408V183.565V184.37H81.142Z" fill="#444444"/>
<g opacity="0.6">
<path d="M146.377 216.892C135.596 213.825 80.1559 212.017 80.1559 212.017C80.1559 212.017 24.7084 213.825 13.9346 216.892C3.15312 219.958 0.408203 230.441 0.408203 230.441L0.484456 230.632L1.61293 245.821L80.1559 252.321L158.699 245.821L159.827 230.632L159.904 230.441C159.904 230.441 157.151 219.958 146.377 216.892Z" fill="#505354"/>
<path d="M120.773 1.02676C120.3 0.546131 119.652 0.271484 118.973 0.271484H80.453H79.2559H40.7355C40.0569 0.271484 39.4088 0.546131 38.9361 1.02676L22.497 17.8413C22.0395 18.3143 21.7803 18.9475 21.7803 19.6036V27.9956C21.7803 29.3917 22.9087 30.5208 24.3041 30.5208H79.2712H80.4683H135.435C136.831 30.5208 137.959 29.3917 137.959 27.9956V19.6036C137.959 18.9475 137.7 18.3143 137.242 17.8413L120.773 1.02676Z" fill="#3E4D5B"/>
<path d="M39.6294 14.1797H39.0194C38.0053 14.1797 37.1895 15.0036 37.1895 16.0107V22.4038H41.467V16.0107C41.4593 14.996 40.6435 14.1797 39.6294 14.1797Z" fill="#222E38"/>
<path d="M53.1406 14.1797H52.5307C51.5166 14.1797 50.7007 15.0036 50.7007 16.0107V22.4038H54.9782V16.0107C54.9706 14.996 54.1547 14.1797 53.1406 14.1797Z" fill="#222E38"/>
<path d="M66.6514 14.1797H66.0414C65.0273 14.1797 64.2114 15.0036 64.2114 16.0107V22.4038H68.4889V16.0107C68.4813 14.996 67.6578 14.1797 66.6514 14.1797Z" fill="#222E38"/>
<path d="M80.1553 14.1797H79.5453C78.5312 14.1797 77.7153 15.0036 77.7153 16.0107V22.4038H81.9928V16.0107C81.9928 14.996 81.1693 14.1797 80.1553 14.1797Z" fill="#222E38"/>
<path d="M93.6665 14.1797H93.0565C92.0424 14.1797 91.2266 15.0036 91.2266 16.0107V22.4038H95.5041V16.0107C95.4964 14.996 94.6806 14.1797 93.6665 14.1797Z" fill="#222E38"/>
<path d="M107.178 14.1797H106.568C105.554 14.1797 104.738 15.0036 104.738 16.0107V22.4038H109.015V16.0107C109.008 14.996 108.192 14.1797 107.178 14.1797Z" fill="#222E38"/>
<path d="M120.689 14.1797H120.071C119.057 14.1797 118.241 15.0036 118.241 16.0107V22.4038H122.519V16.0107C122.519 14.996 121.695 14.1797 120.689 14.1797Z" fill="#222E38"/>
<path d="M70.7161 9.99138C71.2467 9.99138 71.6768 9.561 71.6768 9.03011C71.6768 8.49922 71.2467 8.06885 70.7161 8.06885C70.1855 8.06885 69.7554 8.49922 69.7554 9.03011C69.7554 9.561 70.1855 9.99138 70.7161 9.99138Z" fill="#222E38"/>
<path d="M88.8631 9.99138C89.3937 9.99138 89.8238 9.561 89.8238 9.03011C89.8238 8.49922 89.3937 8.06885 88.8631 8.06885C88.3325 8.06885 87.9023 8.49922 87.9023 9.03011C87.9023 9.561 88.3325 9.99138 88.8631 9.99138Z" fill="#222E38"/>
<path d="M47.6511 3.20871H42.4282C42.2528 3.20871 42.1079 3.06376 42.1079 2.88829C42.1079 2.71282 42.2528 2.56787 42.4282 2.56787H47.6511C47.8265 2.56787 47.9714 2.71282 47.9714 2.88829C47.979 3.06376 47.8341 3.20871 47.6511 3.20871Z" fill="#222E38"/>
<path d="M47.6511 4.87131H42.4282C42.2528 4.87131 42.1079 4.72636 42.1079 4.55089C42.1079 4.37542 42.2528 4.23047 42.4282 4.23047H47.6511C47.8265 4.23047 47.9714 4.37542 47.9714 4.55089C47.979 4.72636 47.8341 4.87131 47.6511 4.87131Z" fill="#222E38"/>
<path d="M117.913 3.20871H112.69C112.515 3.20871 112.37 3.06376 112.37 2.88829C112.37 2.71282 112.515 2.56787 112.69 2.56787H117.913C118.089 2.56787 118.234 2.71282 118.234 2.88829C118.241 3.06376 118.096 3.20871 117.913 3.20871Z" fill="#222E38"/>
<path d="M117.913 4.87131H112.69C112.515 4.87131 112.37 4.72636 112.37 4.55089C112.37 4.37542 112.515 4.23047 112.69 4.23047H117.913C118.089 4.23047 118.234 4.37542 118.234 4.55089C118.241 4.72636 118.096 4.87131 117.913 4.87131Z" fill="#222E38"/>
<path d="M39.6146 6.74878H71.7988C72.5765 6.74878 73.2094 7.38199 73.2094 8.16016V28.4077H73.9719V8.16016C73.9719 6.96239 72.9959 5.98587 71.7988 5.98587H39.6146C39.2943 5.98587 38.9741 5.87143 38.7301 5.67308L36.313 3.7124L35.7793 4.2617L38.2497 6.26815C38.631 6.57331 39.119 6.74878 39.6146 6.74878Z" fill="#C1C1C1"/>
<path d="M120.095 5.98617H87.9104C86.7133 5.98617 85.7373 6.9627 85.7373 8.16046V28.408H86.4998V8.16046C86.4998 7.3823 87.1326 6.74908 87.9104 6.74908H120.095C120.59 6.74908 121.078 6.57361 121.459 6.26082L123.93 4.25437L123.396 3.70508L120.979 5.66575C120.727 5.87174 120.415 5.98617 120.095 5.98617Z" fill="#C1C1C1"/>
<path d="M80.1027 81.4989C122.369 81.4989 156.633 68.1539 156.633 51.6921C156.633 35.2302 122.369 21.8853 80.1027 21.8853C37.8364 21.8853 3.57275 35.2302 3.57275 51.6921C3.57275 68.1539 37.8364 81.4989 80.1027 81.4989Z" fill="url(#paint0_linear_426_3258)"/>
<path d="M79.6065 55.4608C115.184 55.4608 144.021 59.8323 144.021 65.2184V67.614C151.455 63.006 155.763 57.5436 155.763 51.6921C155.763 35.2285 121.779 21.8853 79.8582 21.8853C37.9371 21.8853 3.9458 35.2361 3.9458 51.6921C3.9458 57.4215 8.06319 62.7695 15.1924 67.3088V65.2261C15.1924 59.8323 44.0293 55.4608 79.6065 55.4608Z" fill="#505354"/>
<path d="M80.1475 16.6361C41.7415 16.2547 17.0448 21.74 7.78828 24.2576C5.32547 24.9289 3.6709 26.8286 3.6709 28.9647V51.0509C28.4362 42.2012 80.1475 41.957 80.1475 41.957C80.1475 41.957 131.866 42.2012 156.624 51.0509V28.9571C156.624 26.8209 154.97 24.9213 152.507 24.2499C143.25 21.74 118.554 16.2547 80.1475 16.6361Z" fill="url(#paint1_linear_426_3258)"/>
<path d="M79.85 74.9825C115.716 74.9825 144.79 70.6139 144.79 65.2249C144.79 59.8359 115.716 55.4673 79.85 55.4673C43.9845 55.4673 14.9097 59.8359 14.9097 65.2249C14.9097 70.6139 43.9845 74.9825 79.85 74.9825Z" fill="url(#paint2_linear_426_3258)"/>
<path d="M79.8509 230.884C119.245 230.884 151.181 226.133 151.181 220.272C151.181 214.411 119.245 209.66 79.8509 209.66C40.4565 209.66 8.521 214.411 8.521 220.272C8.521 226.133 40.4565 230.884 79.8509 230.884Z" fill="url(#paint3_linear_426_3258)"/>
<path d="M87.7721 28.3694H72.5225C70.7459 28.3694 69.2896 26.9122 69.2896 25.1346C69.2896 23.3571 70.7459 21.8999 72.5225 21.8999H87.7721C89.5486 21.8999 91.005 23.3571 91.005 25.1346C91.005 26.9198 89.5486 28.3694 87.7721 28.3694Z" fill="#505354"/>
<path d="M85.2408 26.1728H75.054C74.4822 26.1728 74.0171 25.7074 74.0171 25.1352C74.0171 24.563 74.4822 24.0977 75.054 24.0977H85.2408C85.8126 24.0977 86.2777 24.563 86.2777 25.1352C86.2777 25.7074 85.8126 26.1728 85.2408 26.1728Z" fill="#1E1E1E"/>
<path d="M83.7391 31.7035H76.5565C75.9846 31.7035 75.5195 31.2382 75.5195 30.666C75.5195 30.0938 75.9846 29.6284 76.5565 29.6284H83.7391C84.3109 29.6284 84.776 30.0938 84.776 30.666C84.776 31.2382 84.3109 31.7035 83.7391 31.7035Z" fill="#505354"/>
<path d="M24.9676 34.671L16.3211 30.536C16.1762 30.4674 16.0847 30.3529 16.0847 30.2385V22.2661C15.8255 22.3195 15.5739 22.3729 15.3223 22.434V30.2385C15.3223 30.6505 15.5815 31.0319 15.9933 31.2303L24.6398 35.3652C24.7846 35.4339 24.8761 35.5483 24.8761 35.6704V46.0841C25.1277 46.046 25.387 46.0078 25.6386 45.962V35.6628C25.631 35.2508 25.3794 34.8694 24.9676 34.671Z" fill="#C1C1C1"/>
<path d="M25.0513 25.6843C26.0044 25.6843 26.7745 24.9138 26.7745 23.9601V20.2905C26.5153 20.3287 26.2637 20.3744 26.0121 20.4126V23.9601C26.0121 24.4942 25.5774 24.9214 25.0513 24.9214C24.5252 24.9214 24.0906 24.4865 24.0906 23.9601V20.733C23.8314 20.7788 23.5797 20.8246 23.3281 20.8627V23.9525C23.3281 24.9061 24.1059 25.6843 25.0513 25.6843Z" fill="#C1C1C1"/>
<path d="M32.3863 24.8682C33.3394 24.8682 34.1095 24.0976 34.1095 23.144V19.2227C33.8579 19.2532 33.5986 19.2913 33.347 19.3218V23.144C33.347 23.678 32.9124 24.1053 32.3863 24.1053C31.8602 24.1053 31.4256 23.6704 31.4256 23.144V19.5889C31.1739 19.627 30.9147 19.6575 30.6631 19.6957V23.144C30.6631 24.0976 31.4408 24.8682 32.3863 24.8682Z" fill="#C1C1C1"/>
<path d="M59.7515 36.6089C58.7984 36.6089 58.0283 37.3794 58.0283 38.3331V42.7274C58.2799 42.7122 58.5392 42.6969 58.7908 42.6816V38.3407C58.7908 37.8067 59.2254 37.3794 59.7515 37.3794C60.2776 37.3794 60.7122 37.8143 60.7122 38.3407V42.5901C60.9715 42.5748 61.2231 42.5672 61.4747 42.5519V38.3407C61.4747 37.3871 60.7046 36.6089 59.7515 36.6089Z" fill="#C1C1C1"/>
<path d="M21.0709 36.0977C20.1788 36.0977 19.4468 36.7309 19.4468 37.5014C19.4468 38.2796 20.1788 38.9052 21.0709 38.9052C21.963 38.9052 22.6949 38.2719 22.6949 37.5014C22.6949 36.7232 21.9706 36.0977 21.0709 36.0977ZM21.0709 38.1423C20.6057 38.1423 20.2093 37.8447 20.2093 37.5014C20.2093 37.1505 20.6057 36.8606 21.0709 36.8606C21.536 36.8606 21.9325 37.1581 21.9325 37.5014C21.9325 37.8523 21.5436 38.1423 21.0709 38.1423Z" fill="#C1C1C1"/>
<path d="M134.147 35.3577L142.793 31.2228C143.205 31.0244 143.464 30.6506 143.464 30.231V22.106C143.213 22.0526 142.961 21.9992 142.702 21.9458V30.2386C142.702 30.353 142.61 30.4675 142.465 30.5438L133.819 34.6787C133.407 34.8771 133.148 35.2585 133.148 35.6705V45.7409C133.4 45.779 133.659 45.8172 133.91 45.8553V35.6629C133.91 35.5485 134.002 35.434 134.147 35.3577Z" fill="#C1C1C1"/>
<path d="M133.728 25.6841C134.681 25.6841 135.451 24.9136 135.451 23.9599V20.6031C135.199 20.5574 134.94 20.5192 134.688 20.4734V23.9523C134.688 24.4863 134.254 24.9136 133.728 24.9136C133.201 24.9136 132.767 24.4787 132.767 23.9523V20.1606C132.515 20.1225 132.264 20.0843 132.004 20.0386V23.9523C132.004 24.9059 132.775 25.6841 133.728 25.6841Z" fill="#C1C1C1"/>
<path d="M126.392 24.8683C127.345 24.8683 128.115 24.0978 128.115 23.1441V19.4822C127.863 19.444 127.612 19.4135 127.352 19.3754V23.1441C127.352 23.6782 126.918 24.1054 126.392 24.1054C125.866 24.1054 125.431 23.6705 125.431 23.1441V19.1236C125.179 19.0931 124.928 19.0549 124.668 19.0244V23.1441C124.668 24.0978 125.439 24.8683 126.392 24.8683Z" fill="#C1C1C1"/>
<path d="M99.0269 36.6089C98.0738 36.6089 97.3037 37.3794 97.3037 38.3331V42.468C97.5553 42.4833 97.8069 42.4909 98.0662 42.5062V38.3407C98.0662 37.8067 98.5008 37.3794 99.0269 37.3794C99.553 37.3794 99.9876 37.8143 99.9876 38.3407V42.613C100.239 42.6282 100.491 42.6435 100.75 42.6511V38.3407C100.75 37.3871 99.9724 36.6089 99.0269 36.6089Z" fill="#C1C1C1"/>
<path d="M79.851 48.5933C40.8502 48.5933 9.23779 53.3462 9.23779 59.2053V219.714H150.464V59.2053C150.464 53.3462 118.852 48.5933 79.851 48.5933Z" fill="url(#paint4_linear_426_3258)"/>
<path d="M137.708 36.0977C136.815 36.0977 136.083 36.7309 136.083 37.5014C136.083 38.2796 136.815 38.9052 137.708 38.9052C138.6 38.9052 139.332 38.2719 139.332 37.5014C139.332 36.7232 138.6 36.0977 137.708 36.0977ZM137.708 38.1423C137.242 38.1423 136.846 37.8447 136.846 37.5014C136.846 37.1505 137.242 36.8606 137.708 36.8606C138.173 36.8606 138.569 37.1581 138.569 37.5014C138.569 37.8523 138.173 38.1423 137.708 38.1423Z" fill="#C1C1C1"/>
<path d="M25.0504 128.738C23.5331 128.738 22.2979 127.494 22.2979 125.984V68.5598C22.2979 67.0416 23.5407 65.8057 25.0504 65.8057C26.5677 65.8057 27.8029 67.0492 27.8029 68.5598V125.984C27.8029 127.494 26.5677 128.738 25.0504 128.738Z" fill="url(#paint5_linear_426_3258)"/>
<path d="M25.0504 174.382C23.5331 174.382 22.2979 173.138 22.2979 171.628V139.975C22.2979 138.457 23.5407 137.221 25.0504 137.221C26.5677 137.221 27.8029 138.464 27.8029 139.975V171.628C27.8029 173.138 26.5677 174.382 25.0504 174.382Z" fill="url(#paint6_linear_426_3258)"/>
<path d="M137.707 161.679C136.189 161.679 134.954 160.436 134.954 158.925V101.501C134.954 99.983 136.197 98.7471 137.707 98.7471C139.224 98.7471 140.459 99.9906 140.459 101.501V158.925C140.459 160.436 139.216 161.679 137.707 161.679Z" fill="url(#paint7_linear_426_3258)"/>
<path d="M137.707 207.326C136.189 207.326 134.954 206.082 134.954 204.572V172.919C134.954 171.4 136.197 170.165 137.707 170.165C139.224 170.165 140.459 171.408 140.459 172.919V204.572C140.459 206.082 139.216 207.326 137.707 207.326Z" fill="url(#paint8_linear_426_3258)"/>
<path d="M109.289 187.718C112.944 187.718 115.907 184.753 115.907 181.096C115.907 177.439 112.944 174.474 109.289 174.474C105.634 174.474 102.67 177.439 102.67 181.096C102.67 184.753 105.634 187.718 109.289 187.718Z" fill="url(#paint9_linear_426_3258)"/>
<path d="M110.082 135.642C112.554 135.642 114.557 133.637 114.557 131.164C114.557 128.691 112.554 126.686 110.082 126.686C107.61 126.686 105.606 128.691 105.606 131.164C105.606 133.637 107.61 135.642 110.082 135.642Z" fill="url(#paint10_linear_426_3258)"/>
<path d="M50.9142 195.675C53.3861 195.675 55.39 193.67 55.39 191.197C55.39 188.724 53.3861 186.719 50.9142 186.719C48.4423 186.719 46.4385 188.724 46.4385 191.197C46.4385 193.67 48.4423 195.675 50.9142 195.675Z" fill="url(#paint11_linear_426_3258)"/>
<path d="M115.907 89.9139C117.966 89.9139 119.636 88.2436 119.636 86.1833C119.636 84.1229 117.966 82.4526 115.907 82.4526C113.848 82.4526 112.179 84.1229 112.179 86.1833C112.179 88.2436 113.848 89.9139 115.907 89.9139Z" fill="url(#paint12_linear_426_3258)"/>
<path d="M74.0176 151.076C76.6032 151.076 78.6992 148.979 78.6992 146.392C78.6992 143.805 76.6032 141.708 74.0176 141.708C71.432 141.708 69.3359 143.805 69.3359 146.392C69.3359 148.979 71.432 151.076 74.0176 151.076Z" fill="url(#paint13_linear_426_3258)"/>
<path d="M56.1456 103.592C57.9732 103.592 59.4547 102.11 59.4547 100.281C59.4547 98.4526 57.9732 96.9702 56.1456 96.9702C54.318 96.9702 52.8364 98.4526 52.8364 100.281C52.8364 102.11 54.318 103.592 56.1456 103.592Z" fill="url(#paint14_linear_426_3258)"/>
<path d="M47.7803 26.5763H36.7777C36.3126 26.5763 35.939 26.1949 35.939 25.7371C35.939 25.2718 36.3202 24.8979 36.7777 24.8979H47.7803C48.2454 24.8979 48.619 25.2794 48.619 25.7371C48.6266 26.2025 48.2454 26.5763 47.7803 26.5763Z" fill="#1E1E1E"/>
<path d="M47.7803 29.9328H36.7777C36.3126 29.9328 35.939 29.5513 35.939 29.0936C35.939 28.6282 36.3202 28.2544 36.7777 28.2544H47.7803C48.2454 28.2544 48.619 28.6358 48.619 29.0936C48.6266 29.5513 48.2454 29.9328 47.7803 29.9328Z" fill="#1E1E1E"/>
<path d="M47.7803 33.2829H36.7777C36.3126 33.2829 35.939 32.9014 35.939 32.4437C35.939 31.9783 36.3202 31.6045 36.7777 31.6045H47.7803C48.2454 31.6045 48.619 31.9859 48.619 32.4437C48.6266 32.9091 48.2454 33.2829 47.7803 33.2829Z" fill="#1E1E1E"/>
<path d="M123.739 26.5763H112.736C112.271 26.5763 111.897 26.1949 111.897 25.7371C111.897 25.2718 112.279 24.8979 112.736 24.8979H123.739C124.204 24.8979 124.577 25.2794 124.577 25.7371C124.577 26.2025 124.204 26.5763 123.739 26.5763Z" fill="#1E1E1E"/>
<path d="M123.739 29.9328H112.736C112.271 29.9328 111.897 29.5513 111.897 29.0936C111.897 28.6282 112.279 28.2544 112.736 28.2544H123.739C124.204 28.2544 124.577 28.6358 124.577 29.0936C124.577 29.5513 124.204 29.9328 123.739 29.9328Z" fill="#1E1E1E"/>
<path d="M123.739 33.2829H112.736C112.271 33.2829 111.897 32.9014 111.897 32.4437C111.897 31.9783 112.279 31.6045 112.736 31.6045H123.739C124.204 31.6045 124.577 31.9859 124.577 32.4437C124.577 32.9091 124.204 33.2829 123.739 33.2829Z" fill="#1E1E1E"/>
<path d="M80.1481 267.091C40.1027 267.495 14.3461 261.628 4.69315 258.928C2.1236 258.211 0.400391 256.181 0.400391 253.893V230.25C26.2255 239.725 80.1557 239.985 80.1557 239.985C80.1557 239.985 134.086 239.725 159.911 230.25V253.893C159.911 256.181 158.188 258.211 155.618 258.928C145.958 261.628 120.193 267.495 80.1481 267.091Z" fill="url(#paint15_linear_426_3258)"/>
<path d="M88.2381 254.526H72.0659C70.2894 254.526 68.833 255.984 68.833 257.761V258.219C68.833 259.996 70.2894 261.454 72.0659 261.454H88.2381C90.0147 261.454 91.471 259.996 91.471 258.219V257.761C91.471 255.984 90.0147 254.526 88.2381 254.526Z" fill="#505354"/>
<path d="M85.5091 256.875H74.7962C74.2244 256.875 73.7593 257.341 73.7593 257.913V258.058C73.7593 258.63 74.2244 259.096 74.7962 259.096H85.5091C86.0809 259.096 86.546 258.63 86.546 258.058V257.913C86.546 257.341 86.0733 256.875 85.5091 256.875Z" fill="#1E1E1E"/>
<path d="M83.9383 250.956H76.3592C75.7874 250.956 75.3223 251.421 75.3223 251.993V252.138C75.3223 252.71 75.7874 253.176 76.3592 253.176H83.9383C84.5101 253.176 84.9753 252.71 84.9753 252.138V251.993C84.9753 251.421 84.5101 250.956 83.9383 250.956Z" fill="#505354"/>
<path d="M22.6037 247.782L13.5912 252.207C13.4387 252.283 13.3472 252.405 13.3472 252.527V261.064C13.0727 261.003 12.8134 260.95 12.5542 260.888V252.535C12.5542 252.092 12.8211 251.688 13.2481 251.474L22.2606 247.049C22.4131 246.973 22.5046 246.851 22.5046 246.729V235.575C22.7714 235.621 23.0307 235.659 23.2975 235.705V246.729C23.2975 247.164 23.0307 247.568 22.6037 247.782Z" fill="#C1C1C1"/>
<path d="M22.6952 257.409C23.6864 257.409 24.4946 258.241 24.4946 259.255V263.184C24.2278 263.139 23.9609 263.093 23.7017 263.047V259.248C23.7017 258.683 23.2518 258.218 22.7028 258.218C22.1538 258.218 21.6964 258.683 21.6964 259.248V262.696C21.4295 262.65 21.1626 262.605 20.9034 262.551V259.24C20.8957 258.233 21.704 257.409 22.6952 257.409Z" fill="#C1C1C1"/>
<path d="M30.3425 258.28C31.3337 258.28 32.142 259.111 32.142 260.126V264.33C31.8751 264.291 31.6082 264.261 31.349 264.223V260.126C31.349 259.561 30.8991 259.096 30.3501 259.096C29.8011 259.096 29.3513 259.561 29.3513 260.126V263.933C29.0844 263.895 28.8176 263.857 28.5583 263.819V260.126C28.5431 259.104 29.3513 258.28 30.3425 258.28Z" fill="#C1C1C1"/>
<path d="M58.8824 245.699C57.8912 245.699 57.083 244.868 57.083 243.853V239.146C57.3499 239.161 57.6167 239.177 57.876 239.192V243.853C57.876 244.418 58.3258 244.883 58.8748 244.883C59.4238 244.883 59.8737 244.418 59.8737 243.853V239.306C60.1405 239.321 60.4074 239.337 60.6666 239.352V243.861C60.6819 244.875 59.8737 245.699 58.8824 245.699Z" fill="#C1C1C1"/>
<path d="M18.5477 246.257C17.6098 246.257 16.855 245.585 16.855 244.754C16.855 243.922 17.6175 243.251 18.5477 243.251C19.4855 243.251 20.2404 243.922 20.2404 244.754C20.2404 245.578 19.4779 246.257 18.5477 246.257ZM18.5477 244.06C18.0597 244.06 17.648 244.372 17.648 244.746C17.648 245.12 18.0597 245.433 18.5477 245.433C19.0357 245.433 19.4474 245.12 19.4474 244.746C19.4474 244.38 19.0357 244.06 18.5477 244.06Z" fill="#C1C1C1"/>
<path d="M136.457 247.042L145.47 251.467C145.897 251.681 146.164 252.085 146.164 252.528V261.232C145.897 261.286 145.638 261.347 145.371 261.4V252.528C145.371 252.405 145.279 252.276 145.127 252.207L136.114 247.782C135.687 247.569 135.42 247.164 135.42 246.722V235.942C135.687 235.904 135.954 235.858 136.213 235.82V246.722C136.206 246.844 136.305 246.966 136.457 247.042Z" fill="#C1C1C1"/>
<path d="M136.023 257.409C137.014 257.409 137.822 258.241 137.822 259.255V262.849C137.563 262.894 137.288 262.94 137.029 262.986V259.263C137.029 258.699 136.579 258.233 136.03 258.233C135.481 258.233 135.031 258.699 135.031 259.263V263.322C134.765 263.367 134.505 263.406 134.238 263.451V259.263C134.223 258.233 135.031 257.409 136.023 257.409Z" fill="#C1C1C1"/>
<path d="M128.367 258.28C129.358 258.28 130.167 259.111 130.167 260.126V264.047C129.9 264.086 129.641 264.124 129.374 264.162V260.126C129.374 259.561 128.924 259.096 128.375 259.096C127.818 259.096 127.376 259.561 127.376 260.126V264.436C127.109 264.475 126.85 264.505 126.583 264.543V260.134C126.575 259.104 127.376 258.28 128.367 258.28Z" fill="#C1C1C1"/>
<path d="M99.8346 245.7C98.8434 245.7 98.0352 244.868 98.0352 243.853V239.429C98.302 239.413 98.5613 239.406 98.8281 239.39V243.853C98.8281 244.418 99.278 244.883 99.8346 244.883C100.391 244.883 100.833 244.418 100.833 243.853V239.284C101.1 239.268 101.36 239.253 101.626 239.238V243.853C101.626 244.876 100.826 245.7 99.8346 245.7Z" fill="#C1C1C1"/>
<path d="M140.171 246.257C139.233 246.257 138.478 245.585 138.478 244.754C138.478 243.922 139.24 243.251 140.171 243.251C141.101 243.251 141.863 243.922 141.863 244.754C141.863 245.578 141.101 246.257 140.171 246.257ZM140.171 244.06C139.683 244.06 139.271 244.372 139.271 244.746C139.271 245.12 139.683 245.433 140.171 245.433C140.659 245.433 141.07 245.12 141.07 244.746C141.063 244.38 140.651 244.06 140.171 244.06Z" fill="#C1C1C1"/>
<path d="M46.431 256.441H34.8871C34.422 256.441 34.0483 256.822 34.0483 257.28V257.402C34.0483 257.868 34.4296 258.241 34.8871 258.241H46.431C46.8961 258.241 47.2697 257.86 47.2697 257.402V257.28C47.2773 256.822 46.8961 256.441 46.431 256.441Z" fill="#1E1E1E"/>
<path d="M46.431 252.855H34.8871C34.422 252.855 34.0483 253.237 34.0483 253.695V253.817C34.0483 254.282 34.4296 254.656 34.8871 254.656H46.431C46.8961 254.656 47.2697 254.274 47.2697 253.817V253.695C47.2773 253.229 46.8961 252.855 46.431 252.855Z" fill="#1E1E1E"/>
<path d="M46.431 249.262H34.8871C34.422 249.262 34.0483 249.643 34.0483 250.101V250.223C34.0483 250.688 34.4296 251.062 34.8871 251.062H46.431C46.8961 251.062 47.2697 250.681 47.2697 250.223V250.101C47.2773 249.643 46.8961 249.262 46.431 249.262Z" fill="#1E1E1E"/>
<path d="M125.645 256.441H114.101C113.636 256.441 113.262 256.822 113.262 257.28V257.402C113.262 257.868 113.643 258.241 114.101 258.241H125.645C126.11 258.241 126.484 257.86 126.484 257.402V257.28C126.484 256.822 126.102 256.441 125.645 256.441Z" fill="#1E1E1E"/>
<path d="M125.645 252.855H114.101C113.636 252.855 113.262 253.237 113.262 253.695V253.817C113.262 254.282 113.643 254.656 114.101 254.656H125.645C126.11 254.656 126.484 254.274 126.484 253.817V253.695C126.484 253.229 126.102 252.855 125.645 252.855Z" fill="#1E1E1E"/>
<path d="M125.645 249.262H114.101C113.636 249.262 113.262 249.643 113.262 250.101V250.223C113.262 250.688 113.643 251.062 114.101 251.062H125.645C126.11 251.062 126.484 250.681 126.484 250.223V250.101C126.484 249.643 126.102 249.262 125.645 249.262Z" fill="#1E1E1E"/>
</g>
<defs>
<linearGradient id="paint0_linear_426_3258" x1="3.57131" y1="51.6932" x2="156.631" y2="51.6932" gradientUnits="userSpaceOnUse">
<stop stop-color="#999999"/>
<stop offset="1" stop-color="#333333"/>
</linearGradient>
<linearGradient id="paint1_linear_426_3258" x1="3.66975" y1="33.8308" x2="156.63" y2="33.8308" gradientUnits="userSpaceOnUse">
<stop stop-color="#999999"/>
<stop offset="1" stop-color="#333333"/>
</linearGradient>
<linearGradient id="paint2_linear_426_3258" x1="79.8512" y1="55.4626" x2="79.8512" y2="74.9848" gradientUnits="userSpaceOnUse">
<stop stop-color="#00FFFF"/>
<stop offset="0.216" stop-color="#3DFFFF" stop-opacity="0.784"/>
<stop offset="0.6041" stop-color="#A4FFFF" stop-opacity="0.3959"/>
<stop offset="0.8737" stop-color="#E6FFFF" stop-opacity="0.1263"/>
<stop offset="1" stop-color="white" stop-opacity="0"/>
</linearGradient>
<linearGradient id="paint3_linear_426_3258" x1="79.8521" y1="209.66" x2="79.8521" y2="230.886" gradientUnits="userSpaceOnUse">
<stop stop-color="#999999"/>
<stop offset="1" stop-color="#333333"/>
</linearGradient>
<linearGradient id="paint4_linear_426_3258" x1="79.8522" y1="48.5933" x2="79.8522" y2="219.717" gradientUnits="userSpaceOnUse">
<stop stop-color="white"/>
<stop offset="1" stop-color="white" stop-opacity="0"/>
</linearGradient>
<linearGradient id="paint5_linear_426_3258" x1="25.0519" y1="128.736" x2="25.0519" y2="65.8004" gradientUnits="userSpaceOnUse">
<stop stop-color="white"/>
<stop offset="1" stop-color="white" stop-opacity="0"/>
</linearGradient>
<linearGradient id="paint6_linear_426_3258" x1="25.0519" y1="174.381" x2="25.0519" y2="137.213" gradientUnits="userSpaceOnUse">
<stop stop-color="white"/>
<stop offset="1" stop-color="white" stop-opacity="0"/>
</linearGradient>
<linearGradient id="paint7_linear_426_3258" x1="137.704" y1="161.679" x2="137.704" y2="98.7426" gradientUnits="userSpaceOnUse">
<stop stop-color="white"/>
<stop offset="1" stop-color="white" stop-opacity="0"/>
</linearGradient>
<linearGradient id="paint8_linear_426_3258" x1="137.704" y1="207.326" x2="137.704" y2="170.158" gradientUnits="userSpaceOnUse">
<stop stop-color="white"/>
<stop offset="1" stop-color="white" stop-opacity="0"/>
</linearGradient>
<linearGradient id="paint9_linear_426_3258" x1="109.289" y1="187.716" x2="109.289" y2="174.471" gradientUnits="userSpaceOnUse">
<stop stop-color="white"/>
<stop offset="1" stop-color="white" stop-opacity="0"/>
</linearGradient>
<linearGradient id="paint10_linear_426_3258" x1="110.085" y1="135.642" x2="110.085" y2="126.686" gradientUnits="userSpaceOnUse">
<stop stop-color="white"/>
<stop offset="1" stop-color="white" stop-opacity="0"/>
</linearGradient>
<linearGradient id="paint11_linear_426_3258" x1="50.9105" y1="195.677" x2="50.9105" y2="186.721" gradientUnits="userSpaceOnUse">
<stop stop-color="white"/>
<stop offset="1" stop-color="white" stop-opacity="0"/>
</linearGradient>
<linearGradient id="paint12_linear_426_3258" x1="115.908" y1="89.9142" x2="115.908" y2="82.4501" gradientUnits="userSpaceOnUse">
<stop stop-color="white"/>
<stop offset="1" stop-color="white" stop-opacity="0"/>
</linearGradient>
<linearGradient id="paint13_linear_426_3258" x1="74.0198" y1="151.072" x2="74.0198" y2="141.707" gradientUnits="userSpaceOnUse">
<stop stop-color="white"/>
<stop offset="1" stop-color="white" stop-opacity="0"/>
</linearGradient>
<linearGradient id="paint14_linear_426_3258" x1="56.1435" y1="103.591" x2="56.1435" y2="96.9691" gradientUnits="userSpaceOnUse">
<stop stop-color="white"/>
<stop offset="1" stop-color="white" stop-opacity="0"/>
</linearGradient>
<linearGradient id="paint15_linear_426_3258" x1="0.398027" y1="248.681" x2="159.903" y2="248.681" gradientUnits="userSpaceOnUse">
<stop stop-color="#999999"/>
<stop offset="1" stop-color="#333333"/>
</linearGradient>
</defs>
</svg>
