<svg width="303" height="505" viewBox="0 0 303 505" fill="none" xmlns="http://www.w3.org/2000/svg">
<g opacity="0.6">
<path d="M228.829 1.42939C227.934 0.519776 226.706 0 225.421 0H152.455H150.188H77.2223C75.9369 0 74.7093 0.519776 73.8138 1.42939L42.675 33.2513C41.8084 34.1464 41.3174 35.3448 41.3174 36.5865V52.4685C41.3174 55.1107 43.4549 57.2476 46.098 57.2476H150.217H152.484H256.603C259.246 57.2476 261.383 55.1107 261.383 52.4685V36.5865C261.383 35.3448 260.892 34.1464 260.026 33.2513L228.829 1.42939Z" fill="#8E6900"/>
<path d="M75.1422 26.3212H73.9868C72.0659 26.3212 70.5205 27.8805 70.5205 29.7863V41.8856H78.6229V29.7863C78.6085 27.8661 77.0487 26.3212 75.1422 26.3212Z" fill="#1E1E1E"/>
<path d="M100.72 26.321H99.5649C97.644 26.321 96.0986 27.8804 96.0986 29.7862V41.8855H104.201V29.7862C104.201 27.8659 102.641 26.321 100.72 26.321Z" fill="#1E1E1E"/>
<path d="M126.313 26.321H125.158C123.237 26.321 121.691 27.8804 121.691 29.7862V41.8855H129.794V29.7862C129.779 27.8659 128.234 26.321 126.313 26.321Z" fill="#1E1E1E"/>
<path d="M151.907 26.321H150.751C148.83 26.321 147.285 27.8804 147.285 29.7862V41.8855H155.388V29.7862C155.373 27.8659 153.828 26.321 151.907 26.321Z" fill="#1E1E1E"/>
<path d="M177.499 26.321H176.343C174.422 26.321 172.877 27.8804 172.877 29.7862V41.8855H180.979V29.7862C180.965 27.8659 179.405 26.321 177.499 26.321Z" fill="#1E1E1E"/>
<path d="M203.077 26.321H201.921C200 26.321 198.455 27.8804 198.455 29.7862V41.8855H206.558V29.7862C206.558 27.8659 204.998 26.321 203.077 26.321Z" fill="#1E1E1E"/>
<path d="M228.671 26.321H227.515C225.594 26.321 224.049 27.8804 224.049 29.7862V41.8855H232.151V29.7862C232.137 27.8659 230.591 26.321 228.671 26.321Z" fill="#1E1E1E"/>
<path d="M134.011 18.3947C135.016 18.3947 135.831 17.5802 135.831 16.5755C135.831 15.5708 135.016 14.7563 134.011 14.7563C133.006 14.7563 132.191 15.5708 132.191 16.5755C132.191 17.5802 133.006 18.3947 134.011 18.3947Z" fill="#222E38"/>
<path d="M168.4 18.3947C169.405 18.3947 170.22 17.5802 170.22 16.5755C170.22 15.5708 169.405 14.7563 168.4 14.7563C167.395 14.7563 166.58 15.5708 166.58 16.5755C166.58 17.5802 167.395 18.3947 168.4 18.3947Z" fill="#222E38"/>
<path d="M90.3359 5.55876H80.4425C80.1103 5.55876 79.8359 5.28443 79.8359 4.95235C79.8359 4.62027 80.1103 4.34595 80.4425 4.34595H90.3359C90.6681 4.34595 90.9425 4.62027 90.9425 4.95235C90.9425 5.28443 90.6681 5.55876 90.3359 5.55876Z" fill="#222E38"/>
<path d="M90.3359 8.70628H80.4425C80.1103 8.70628 79.8359 8.43195 79.8359 8.09988C79.8359 7.7678 80.1103 7.49347 80.4425 7.49347H90.3359C90.6681 7.49347 90.9425 7.7678 90.9425 8.09988C90.9425 8.43195 90.6681 8.70628 90.3359 8.70628Z" fill="#222E38"/>
<path d="M223.428 5.55876H213.534C213.202 5.55876 212.928 5.28443 212.928 4.95235C212.928 4.62027 213.202 4.34595 213.534 4.34595H223.428C223.76 4.34595 224.034 4.62027 224.034 4.95235C224.034 5.28443 223.76 5.55876 223.428 5.55876Z" fill="#222E38"/>
<path d="M223.428 8.70628H213.534C213.202 8.70628 212.928 8.43195 212.928 8.09988C212.928 7.7678 213.202 7.49347 213.534 7.49347H223.428C223.76 7.49347 224.034 7.7678 224.034 8.09988C224.034 8.43195 223.76 8.70628 223.428 8.70628Z" fill="#222E38"/>
<path d="M75.0987 12.2582H136.062C137.535 12.2582 138.734 13.4566 138.734 14.9293V53.2483H140.178V14.9293C140.178 12.6625 138.33 10.8144 136.062 10.8144H75.0987C74.4921 10.8144 73.8855 10.5978 73.4234 10.2224L68.845 6.51178L67.834 7.55133L72.5135 11.3486C73.2356 11.9261 74.1599 12.2582 75.0987 12.2582Z" fill="#FFFF00"/>
<path d="M227.543 10.8145H166.579C164.312 10.8145 162.463 12.6626 162.463 14.9294V53.2484H163.907V14.9294C163.907 13.4567 165.106 12.2583 166.579 12.2583H227.543C228.481 12.2583 229.406 11.9262 230.128 11.3342L234.807 7.53699L233.796 6.49744L229.218 10.2081C228.756 10.5979 228.149 10.8145 227.543 10.8145Z" fill="#FFFF00"/>
<path d="M277.328 409.959C256.906 404.155 151.892 400.733 151.892 400.733C151.892 400.733 46.8634 404.155 26.4556 409.959C6.0334 415.763 0.833984 435.602 0.833984 435.602L0.978378 435.962L3.11598 464.709L151.892 477.01L300.668 464.709L302.806 435.962L302.95 435.602C302.95 435.602 297.75 415.763 277.328 409.959Z" fill="#C68400"/>
<path d="M151.791 153.724C231.852 153.724 296.754 128.468 296.754 97.3134C296.754 66.1589 231.852 40.9032 151.791 40.9032C71.7303 40.9032 6.82812 66.1589 6.82812 97.3134C6.82812 128.468 71.7303 153.724 151.791 153.724Z" fill="url(#paint0_linear_358_2522)"/>
<path d="M150.852 104.446C218.242 104.446 272.865 112.719 272.865 122.912V127.446C286.947 118.725 295.107 108.387 295.107 97.3134C295.107 66.1557 230.735 40.9032 151.329 40.9032C71.9217 40.9032 7.5498 66.1557 7.5498 97.3134C7.5498 108.156 15.349 118.278 28.853 126.868V122.927C28.8386 112.719 83.4615 104.446 150.852 104.446Z" fill="#C68400"/>
<path d="M151.892 30.9703C79.1436 30.2484 32.3631 40.6295 14.8295 45.3941C10.1644 46.6647 7.03027 50.2598 7.03027 54.3025V96.1012C53.9407 79.3528 151.892 78.8908 151.892 78.8908C151.892 78.8908 249.858 79.3528 296.754 96.1012V54.2881C296.754 50.2453 293.62 46.6502 288.955 45.3797C271.421 40.6295 224.627 30.2484 151.892 30.9703Z" fill="url(#paint1_linear_358_2522)"/>
<path d="M151.328 141.393C219.265 141.393 274.338 133.126 274.338 122.927C274.338 112.728 219.265 104.46 151.328 104.46C83.3917 104.46 28.3184 112.728 28.3184 122.927C28.3184 133.126 83.3917 141.393 151.328 141.393Z" fill="url(#paint2_linear_358_2522)"/>
<path d="M151.329 436.439C225.95 436.439 286.442 427.447 286.442 416.355C286.442 405.263 225.95 396.272 151.329 396.272C76.708 396.272 16.2158 405.263 16.2158 416.355C16.2158 427.447 76.708 436.439 151.329 436.439Z" fill="url(#paint3_linear_358_2522)"/>
<path d="M166.335 53.1758H137.449C134.084 53.1758 131.325 50.4181 131.325 47.054C131.325 43.6899 134.084 40.9322 137.449 40.9322H166.335C169.7 40.9322 172.459 43.6899 172.459 47.054C172.444 50.4325 169.7 53.1758 166.335 53.1758Z" fill="url(#paint4_linear_358_2522)"/>
<path d="M161.54 49.018H142.244C141.161 49.018 140.28 48.1373 140.28 47.0544C140.28 45.9716 141.161 45.0908 142.244 45.0908H161.54C162.623 45.0908 163.504 45.9716 163.504 47.0544C163.504 48.1373 162.623 49.018 161.54 49.018Z" fill="#1E1E1E"/>
<path d="M158.694 59.4859H145.089C144.006 59.4859 143.125 58.6051 143.125 57.5223C143.125 56.4394 144.006 55.5587 145.089 55.5587H158.694C159.778 55.5587 160.659 56.4394 160.659 57.5223C160.659 58.6051 159.778 59.4859 158.694 59.4859Z" fill="url(#paint5_linear_358_2522)"/>
<path d="M151.329 91.4517C77.4534 91.4517 17.5732 100.447 17.5732 111.535V415.301H285.084V111.535C285.084 100.447 225.189 91.4517 151.329 91.4517Z" fill="url(#paint6_linear_358_2522)"/>
<path d="M47.3552 65.1019L30.977 57.2764C30.7026 57.1465 30.5292 56.9299 30.5292 56.7133V41.6254C30.0382 41.7264 29.5616 41.8275 29.085 41.943V56.7133C29.085 57.493 29.576 58.2149 30.3559 58.5903L46.7342 66.4158C47.0086 66.5458 47.1819 66.7623 47.1819 66.9933V86.7015C47.6585 86.6293 48.1496 86.5572 48.6262 86.4705V66.9789C48.6262 66.1992 48.1351 65.4773 47.3552 65.1019Z" fill="#FFFF00"/>
<path d="M47.5288 48.0939C49.3341 48.0939 50.7929 46.6356 50.7929 44.8308V37.886C50.3018 37.9582 49.8252 38.0449 49.3486 38.1171V44.8308C49.3486 45.8415 48.5253 46.6501 47.5288 46.6501C46.5322 46.6501 45.7089 45.8271 45.7089 44.8308V38.7235C45.2179 38.8101 44.7413 38.8967 44.2646 38.9689V44.8164C44.2646 46.6212 45.7234 48.0939 47.5288 48.0939Z" fill="#FFFF00"/>
<path d="M61.4223 46.5489C63.2277 46.5489 64.6864 45.0906 64.6864 43.2858V35.8646C64.2098 35.9223 63.7187 35.9945 63.2421 36.0523V43.2858C63.2421 44.2965 62.4189 45.105 61.4223 45.105C60.4257 45.105 59.6025 44.2821 59.6025 43.2858V36.5576C59.1259 36.6298 58.6348 36.6875 58.1582 36.7597V43.2858C58.1582 45.0906 59.6169 46.5489 61.4223 46.5489Z" fill="#FFFF00"/>
<path d="M113.258 68.7696C111.453 68.7696 109.994 70.2279 109.994 72.0326V80.3491C110.471 80.3202 110.962 80.2913 111.438 80.2624V72.0471C111.438 71.0364 112.262 70.2279 113.258 70.2279C114.255 70.2279 115.078 71.0508 115.078 72.0471V80.0892C115.569 80.0603 116.046 80.0458 116.522 80.017V72.0471C116.522 70.2423 115.049 68.7696 113.258 68.7696Z" fill="#FFFF00"/>
<path d="M39.9894 67.8019C38.2996 67.8019 36.9131 69.0003 36.9131 70.4585C36.9131 71.9312 38.2996 73.1152 39.9894 73.1152C41.6792 73.1152 43.0658 71.9168 43.0658 70.4585C43.0658 68.9858 41.6792 67.8019 39.9894 67.8019ZM39.9894 71.6713C39.1084 71.6713 38.3574 71.1082 38.3574 70.4585C38.3574 69.7944 39.1084 69.2457 39.9894 69.2457C40.8704 69.2457 41.6215 69.8088 41.6215 70.4585C41.6215 71.1227 40.8704 71.6713 39.9894 71.6713Z" fill="#FFFF00"/>
<path d="M254.163 66.4018L270.541 58.5762C271.321 58.2008 271.812 57.4934 271.812 56.6993V41.3226C271.335 41.2215 270.858 41.1204 270.367 41.0193V56.7137C270.367 56.9303 270.194 57.1469 269.92 57.2912L253.541 65.1168C252.762 65.4922 252.271 66.2141 252.271 66.9937V86.0522C252.747 86.1244 253.238 86.1966 253.715 86.2688V66.9793C253.715 66.7627 253.888 66.5461 254.163 66.4018Z" fill="#FFFF00"/>
<path d="M253.368 48.0936C255.173 48.0936 256.632 46.6353 256.632 44.8306V38.4777C256.155 38.3911 255.664 38.3189 255.187 38.2323V44.8161C255.187 45.8268 254.364 46.6353 253.368 46.6353C252.371 46.6353 251.548 45.8124 251.548 44.8161V37.6403C251.071 37.5681 250.595 37.4959 250.104 37.4093V44.8161C250.104 46.6209 251.577 48.0936 253.368 48.0936Z" fill="#FFFF00"/>
<path d="M239.474 46.5489C241.279 46.5489 242.738 45.0907 242.738 43.2859V36.3556C242.261 36.2834 241.785 36.2256 241.294 36.1534V43.2859C241.294 44.2966 240.471 45.1051 239.474 45.1051C238.477 45.1051 237.654 44.2821 237.654 43.2859V35.677C237.178 35.6192 236.701 35.547 236.21 35.4893V43.2859C236.21 45.0907 237.683 46.5489 239.474 46.5489Z" fill="#FFFF00"/>
<path d="M187.639 68.7696C185.834 68.7696 184.375 70.2279 184.375 72.0326V79.8582C184.852 79.887 185.328 79.9015 185.819 79.9303V72.0471C185.819 71.0364 186.643 70.2279 187.639 70.2279C188.636 70.2279 189.459 71.0508 189.459 72.0471V80.1325C189.935 80.1614 190.412 80.1902 190.903 80.2047V72.0471C190.903 70.2423 189.444 68.7696 187.639 68.7696Z" fill="#FFFF00"/>
<path d="M260.907 67.8019C259.218 67.8019 257.831 69.0003 257.831 70.4585C257.831 71.9312 259.218 73.1152 260.907 73.1152C262.597 73.1152 263.984 71.9168 263.984 70.4585C263.984 68.9858 262.612 67.8019 260.907 67.8019ZM260.907 71.6713C260.026 71.6713 259.275 71.1082 259.275 70.4585C259.275 69.7944 260.026 69.2457 260.907 69.2457C261.788 69.2457 262.539 69.8088 262.539 70.4585C262.539 71.1227 261.788 71.6713 260.907 71.6713Z" fill="#FFFF00"/>
<path d="M47.5273 243.126C44.6532 243.126 42.3135 240.772 42.3135 237.913V129.237C42.3135 126.364 44.6676 124.025 47.5273 124.025C50.4015 124.025 52.7412 126.378 52.7412 129.237V237.913C52.7412 240.772 50.387 243.126 47.5273 243.126Z" fill="url(#paint7_linear_358_2522)"/>
<path d="M47.5273 329.51C44.6532 329.51 42.3135 327.156 42.3135 324.297V264.393C42.3135 261.52 44.6676 259.181 47.5273 259.181C50.4015 259.181 52.7412 261.534 52.7412 264.393V324.297C52.7412 327.156 50.387 329.51 47.5273 329.51Z" fill="url(#paint8_linear_358_2522)"/>
<path d="M260.906 305.469C258.032 305.469 255.692 303.116 255.692 300.257V191.581C255.692 188.707 258.047 186.368 260.906 186.368C263.78 186.368 266.12 188.722 266.12 191.581V300.257C266.12 303.116 263.78 305.469 260.906 305.469Z" fill="url(#paint9_linear_358_2522)"/>
<path d="M260.906 391.854C258.032 391.854 255.692 389.501 255.692 386.642V326.738C255.692 323.865 258.047 321.526 260.906 321.526C263.78 321.526 266.12 323.879 266.12 326.738V386.642C266.12 389.501 263.78 391.854 260.906 391.854Z" fill="url(#paint10_linear_358_2522)"/>
<path d="M207.092 354.747C214.016 354.747 219.628 349.136 219.628 342.215C219.628 335.294 214.016 329.683 207.092 329.683C200.168 329.683 194.556 335.294 194.556 342.215C194.556 349.136 200.168 354.747 207.092 354.747Z" fill="url(#paint11_linear_358_2522)"/>
<path d="M208.594 256.192C213.276 256.192 217.072 252.398 217.072 247.717C217.072 243.037 213.276 239.242 208.594 239.242C203.912 239.242 200.116 243.037 200.116 247.717C200.116 252.398 203.912 256.192 208.594 256.192Z" fill="url(#paint12_linear_358_2522)"/>
<path d="M96.5033 369.807C101.186 369.807 104.981 366.012 104.981 361.332C104.981 356.651 101.186 352.856 96.5033 352.856C91.8211 352.856 88.0254 356.651 88.0254 361.332C88.0254 366.012 91.8211 369.807 96.5033 369.807Z" fill="url(#paint13_linear_358_2522)"/>
<path d="M219.629 169.65C223.53 169.65 226.692 166.489 226.692 162.59C226.692 158.69 223.53 155.529 219.629 155.529C215.728 155.529 212.566 158.69 212.566 162.59C212.566 166.489 215.728 169.65 219.629 169.65Z" fill="url(#paint14_linear_358_2522)"/>
<path d="M140.28 285.401C145.178 285.401 149.148 281.432 149.148 276.536C149.148 271.64 145.178 267.671 140.28 267.671C135.382 267.671 131.412 271.64 131.412 276.536C131.412 281.432 135.382 285.401 140.28 285.401Z" fill="url(#paint15_linear_358_2522)"/>
<path d="M106.411 195.537C109.873 195.537 112.679 192.732 112.679 189.271C112.679 185.81 109.873 183.005 106.411 183.005C102.949 183.005 100.143 185.81 100.143 189.271C100.143 192.732 102.949 195.537 106.411 195.537Z" fill="url(#paint16_linear_358_2522)"/>
<path d="M90.5822 49.7829H69.7411C68.8601 49.7829 68.1523 49.0609 68.1523 48.1947C68.1523 47.3139 68.8745 46.6064 69.7411 46.6064H90.5822C91.4632 46.6064 92.1708 47.3284 92.1708 48.1947C92.1708 49.0754 91.4487 49.7829 90.5822 49.7829Z" fill="#1E1E1E"/>
<path d="M90.5822 56.1355H69.7411C68.8601 56.1355 68.1523 55.4135 68.1523 54.5472C68.1523 53.6665 68.8745 52.959 69.7411 52.959H90.5822C91.4632 52.959 92.1708 53.681 92.1708 54.5472C92.1708 55.4135 91.4487 56.1355 90.5822 56.1355Z" fill="#1E1E1E"/>
<path d="M90.5822 62.4744H69.7411C68.8601 62.4744 68.1523 61.7525 68.1523 60.8862C68.1523 60.0054 68.8745 59.298 69.7411 59.298H90.5822C91.4632 59.298 92.1708 60.0199 92.1708 60.8862C92.1708 61.7669 91.4487 62.4744 90.5822 62.4744Z" fill="#1E1E1E"/>
<path d="M234.462 49.7829H213.621C212.74 49.7829 212.032 49.0609 212.032 48.1947C212.032 47.3139 212.754 46.6064 213.621 46.6064H234.462C235.343 46.6064 236.051 47.3284 236.051 48.1947C236.051 49.0754 235.329 49.7829 234.462 49.7829Z" fill="#1E1E1E"/>
<path d="M234.462 56.1355H213.621C212.74 56.1355 212.032 55.4135 212.032 54.5472C212.032 53.6665 212.754 52.959 213.621 52.959H234.462C235.343 52.959 236.051 53.681 236.051 54.5472C236.051 55.4135 235.329 56.1355 234.462 56.1355Z" fill="#1E1E1E"/>
<path d="M234.462 62.4744H213.621C212.74 62.4744 212.032 61.7525 212.032 60.8862C212.032 60.0054 212.754 59.298 213.621 59.298H234.462C235.343 59.298 236.051 60.0199 236.051 60.8862C236.051 61.7669 235.329 62.4744 234.462 62.4744Z" fill="#1E1E1E"/>
<path d="M151.892 504.962C76.038 505.727 27.25 494.624 8.96533 489.513C4.09808 488.156 0.833984 484.315 0.833984 479.984V435.24C49.752 453.172 151.906 453.663 151.906 453.663C151.906 453.663 254.061 453.172 302.979 435.24V479.984C302.979 484.315 299.715 488.156 294.847 489.513C276.534 494.624 227.746 505.727 151.892 504.962Z" fill="url(#paint17_linear_358_2522)"/>
<path d="M167.201 481.183H136.568C133.203 481.183 130.444 483.941 130.444 487.305V488.171C130.444 491.535 133.203 494.293 136.568 494.293H167.201C170.567 494.293 173.325 491.535 173.325 488.171V487.305C173.325 483.941 170.581 481.183 167.201 481.183Z" fill="url(#paint18_linear_358_2522)"/>
<path d="M162.031 485.629H141.739C140.655 485.629 139.774 486.51 139.774 487.593V487.867C139.774 488.95 140.655 489.831 141.739 489.831H162.031C163.114 489.831 163.995 488.95 163.995 487.867V487.593C163.995 486.51 163.114 485.629 162.031 485.629Z" fill="#1E1E1E"/>
<path d="M159.07 474.425H144.714C143.631 474.425 142.75 475.306 142.75 476.389V476.663C142.75 477.746 143.631 478.627 144.714 478.627H159.07C160.154 478.627 161.035 477.746 161.035 476.663V476.389C161.035 475.306 160.139 474.425 159.07 474.425Z" fill="url(#paint19_linear_358_2522)"/>
<path d="M42.8775 468.418L25.806 476.792C25.5171 476.936 25.3439 477.167 25.3439 477.398V493.555C24.824 493.439 24.3329 493.338 23.8418 493.223V477.413C23.8418 476.575 24.3473 475.81 25.1561 475.406L42.2275 467.032C42.5164 466.887 42.6897 466.656 42.6897 466.425V445.317C43.1952 445.403 43.6863 445.475 44.1918 445.562V466.425C44.2063 467.248 43.7007 468.013 42.8775 468.418Z" fill="#FFFF00"/>
<path d="M43.065 486.639C44.9426 486.639 46.4735 488.213 46.4735 490.133V497.569C45.968 497.482 45.4626 497.395 44.9715 497.309V490.119C44.9715 489.05 44.1194 488.169 43.0795 488.169C42.0252 488.169 41.173 489.05 41.173 490.119V496.645C40.6675 496.558 40.1621 496.471 39.671 496.37V490.104C39.6566 488.198 41.1875 486.639 43.065 486.639Z" fill="#FFFF00"/>
<path d="M57.551 488.285C59.4285 488.285 60.9595 489.859 60.9595 491.779V499.735C60.454 499.662 59.9485 499.605 59.4574 499.532V491.779C59.4574 490.711 58.6053 489.83 57.5654 489.83C56.5111 489.83 55.6734 490.711 55.6734 491.779V498.984C55.1679 498.912 54.6624 498.839 54.1713 498.767V491.779C54.1424 489.844 55.6734 488.285 57.551 488.285Z" fill="#FFFF00"/>
<path d="M111.596 464.475C109.718 464.475 108.188 462.902 108.188 460.981V452.073C108.693 452.102 109.198 452.131 109.69 452.16V460.981C109.69 462.05 110.542 462.931 111.582 462.931C112.621 462.931 113.474 462.05 113.474 460.981V452.376C113.979 452.405 114.485 452.434 114.976 452.463V460.996C115.005 462.916 113.474 464.475 111.596 464.475Z" fill="#FFFF00"/>
<path d="M35.1936 465.53C33.4171 465.53 31.9873 464.259 31.9873 462.685C31.9873 461.112 33.4315 459.841 35.1936 459.841C36.9701 459.841 38.3999 461.112 38.3999 462.685C38.4144 464.245 36.9701 465.53 35.1936 465.53ZM35.1936 461.371C34.2692 461.371 33.4893 461.963 33.4893 462.671C33.4893 463.378 34.2692 463.97 35.1936 463.97C36.1179 463.97 36.8979 463.378 36.8979 462.671C36.8979 461.978 36.1179 461.371 35.1936 461.371Z" fill="#FFFF00"/>
<path d="M258.538 467.018L275.61 475.392C276.419 475.796 276.924 476.561 276.924 477.399V493.873C276.419 493.974 275.928 494.089 275.422 494.19V477.399C275.422 477.168 275.249 476.922 274.96 476.792L257.888 468.418C257.08 468.014 256.574 467.249 256.574 466.411V446.01C257.08 445.938 257.585 445.851 258.076 445.779V466.411C258.076 466.642 258.25 466.873 258.538 467.018Z" fill="#FFFF00"/>
<path d="M257.715 486.639C259.593 486.639 261.124 488.213 261.124 490.133V496.933C260.632 497.02 260.112 497.107 259.621 497.193V490.147C259.621 489.079 258.769 488.198 257.729 488.198C256.69 488.198 255.837 489.079 255.837 490.147V497.829C255.332 497.915 254.841 497.987 254.335 498.074V490.147C254.306 488.198 255.837 486.639 257.715 486.639Z" fill="#FFFF00"/>
<path d="M243.229 488.285C245.106 488.285 246.637 489.859 246.637 491.779V499.2C246.132 499.273 245.641 499.345 245.135 499.417V491.779C245.135 490.711 244.283 489.83 243.243 489.83C242.189 489.83 241.351 490.711 241.351 491.779V499.937C240.846 500.009 240.355 500.067 239.849 500.139V491.794C239.82 489.844 241.351 488.285 243.229 488.285Z" fill="#FFFF00"/>
<path d="M189.169 464.476C187.292 464.476 185.761 462.903 185.761 460.982V452.608C186.266 452.579 186.757 452.565 187.263 452.536V460.982C187.263 462.051 188.115 462.931 189.169 462.931C190.224 462.931 191.061 462.051 191.061 460.982V452.334C191.567 452.305 192.058 452.276 192.563 452.247V460.982C192.578 462.917 191.047 464.476 189.169 464.476Z" fill="#FFFF00"/>
<path d="M265.572 465.53C263.795 465.53 262.365 464.259 262.365 462.685C262.365 461.112 263.809 459.841 265.572 459.841C267.348 459.841 268.778 461.112 268.778 462.685C268.778 464.245 267.348 465.53 265.572 465.53ZM265.572 461.371C264.647 461.371 263.867 461.963 263.867 462.671C263.867 463.378 264.647 463.97 265.572 463.97C266.496 463.97 267.276 463.378 267.276 462.671C267.276 461.978 266.496 461.371 265.572 461.371Z" fill="#FFFF00"/>
<path d="M88.0255 484.805H66.159C65.278 484.805 64.5703 485.527 64.5703 486.394V486.625C64.5703 487.505 65.2924 488.213 66.159 488.213H88.0255C88.9065 488.213 89.6143 487.491 89.6143 486.625V486.394C89.6143 485.527 88.8921 484.805 88.0255 484.805Z" fill="#1E1E1E"/>
<path d="M88.0255 478.021H66.159C65.278 478.021 64.5703 478.742 64.5703 479.609V479.84C64.5703 480.72 65.2924 481.428 66.159 481.428H88.0255C88.9065 481.428 89.6143 480.706 89.6143 479.84V479.609C89.6143 478.728 88.8921 478.021 88.0255 478.021Z" fill="#1E1E1E"/>
<path d="M88.0255 471.219H66.159C65.278 471.219 64.5703 471.941 64.5703 472.807V473.038C64.5703 473.919 65.2924 474.627 66.159 474.627H88.0255C88.9065 474.627 89.6143 473.905 89.6143 473.038V472.807C89.6143 471.941 88.8921 471.219 88.0255 471.219Z" fill="#1E1E1E"/>
<path d="M238.058 484.805H216.191C215.31 484.805 214.603 485.527 214.603 486.394V486.625C214.603 487.505 215.325 488.213 216.191 488.213H238.058C238.939 488.213 239.646 487.491 239.646 486.625V486.394C239.646 485.527 238.939 484.805 238.058 484.805Z" fill="#1E1E1E"/>
<path d="M238.058 478.021H216.191C215.31 478.021 214.603 478.742 214.603 479.609V479.84C214.603 480.72 215.325 481.428 216.191 481.428H238.058C238.939 481.428 239.646 480.706 239.646 479.84V479.609C239.646 478.728 238.939 478.021 238.058 478.021Z" fill="#1E1E1E"/>
<path d="M238.058 471.219H216.191C215.31 471.219 214.603 471.941 214.603 472.807V473.038C214.603 473.919 215.325 474.627 216.191 474.627H238.058C238.939 474.627 239.646 473.905 239.646 473.038V472.807C239.646 471.941 238.939 471.219 238.058 471.219Z" fill="#1E1E1E"/>
</g>
<defs>
<linearGradient id="paint0_linear_358_2522" x1="6.83246" y1="97.3155" x2="296.757" y2="97.3155" gradientUnits="userSpaceOnUse">
<stop stop-color="#FBB03B"/>
<stop offset="1" stop-color="#FCEE21"/>
</linearGradient>
<linearGradient id="paint1_linear_358_2522" x1="7.0206" y1="63.5118" x2="296.757" y2="63.5118" gradientUnits="userSpaceOnUse">
<stop stop-color="#FBB03B"/>
<stop offset="1" stop-color="#FCEE21"/>
</linearGradient>
<linearGradient id="paint2_linear_358_2522" x1="151.323" y1="104.451" x2="151.323" y2="141.398" gradientUnits="userSpaceOnUse">
<stop stop-color="#00FFFF"/>
<stop offset="0.216" stop-color="#3DFFFF" stop-opacity="0.784"/>
<stop offset="0.6041" stop-color="#A4FFFF" stop-opacity="0.3959"/>
<stop offset="0.8737" stop-color="#E6FFFF" stop-opacity="0.1263"/>
<stop offset="1" stop-color="white" stop-opacity="0"/>
</linearGradient>
<linearGradient id="paint3_linear_358_2522" x1="151.324" y1="396.272" x2="151.324" y2="436.443" gradientUnits="userSpaceOnUse">
<stop stop-color="#FBB03B"/>
<stop offset="0.00740123" stop-color="#FBB13D" stop-opacity="0.9926"/>
<stop offset="0.4994" stop-color="#FDDAA4" stop-opacity="0.5006"/>
<stop offset="0.8403" stop-color="#FEF5E6" stop-opacity="0.1597"/>
<stop offset="1" stop-color="white" stop-opacity="0"/>
</linearGradient>
<linearGradient id="paint4_linear_358_2522" x1="131.326" y1="47.0602" x2="172.451" y2="47.0602" gradientUnits="userSpaceOnUse">
<stop stop-color="#FBB03B"/>
<stop offset="1" stop-color="#FCEE21"/>
</linearGradient>
<linearGradient id="paint5_linear_358_2522" x1="143.122" y1="57.5251" x2="160.655" y2="57.5251" gradientUnits="userSpaceOnUse">
<stop stop-color="#FBB03B"/>
<stop offset="1" stop-color="#FCEE21"/>
</linearGradient>
<linearGradient id="paint6_linear_358_2522" x1="151.323" y1="91.4518" x2="151.323" y2="415.307" gradientUnits="userSpaceOnUse">
<stop stop-color="#FBB03B"/>
<stop offset="0.00740123" stop-color="#FBB13D" stop-opacity="0.9926"/>
<stop offset="0.4994" stop-color="#FDDAA4" stop-opacity="0.5006"/>
<stop offset="0.8403" stop-color="#FEF5E6" stop-opacity="0.1597"/>
<stop offset="1" stop-color="white" stop-opacity="0"/>
</linearGradient>
<linearGradient id="paint7_linear_358_2522" x1="47.5227" y1="243.123" x2="47.5227" y2="124.015" gradientUnits="userSpaceOnUse">
<stop stop-color="#FCEE21"/>
<stop offset="0.1123" stop-color="#FCF03D" stop-opacity="0.8877"/>
<stop offset="0.552" stop-color="#FEF8A4" stop-opacity="0.448"/>
<stop offset="0.8571" stop-color="#FFFDE6" stop-opacity="0.1429"/>
<stop offset="1" stop-color="white" stop-opacity="0"/>
</linearGradient>
<linearGradient id="paint8_linear_358_2522" x1="47.5227" y1="329.508" x2="47.5227" y2="259.166" gradientUnits="userSpaceOnUse">
<stop stop-color="#FCEE21"/>
<stop offset="0.1123" stop-color="#FCF03D" stop-opacity="0.8877"/>
<stop offset="0.552" stop-color="#FEF8A4" stop-opacity="0.448"/>
<stop offset="0.8571" stop-color="#FFFDE6" stop-opacity="0.1429"/>
<stop offset="1" stop-color="white" stop-opacity="0"/>
</linearGradient>
<linearGradient id="paint9_linear_358_2522" x1="260.908" y1="305.468" x2="260.908" y2="186.36" gradientUnits="userSpaceOnUse">
<stop stop-color="#FCEE21"/>
<stop offset="0.1123" stop-color="#FCF03D" stop-opacity="0.8877"/>
<stop offset="0.552" stop-color="#FEF8A4" stop-opacity="0.448"/>
<stop offset="0.8571" stop-color="#FFFDE6" stop-opacity="0.1429"/>
<stop offset="1" stop-color="white" stop-opacity="0"/>
</linearGradient>
<linearGradient id="paint10_linear_358_2522" x1="260.908" y1="391.854" x2="260.908" y2="321.513" gradientUnits="userSpaceOnUse">
<stop stop-color="#FCEE21"/>
<stop offset="0.1123" stop-color="#FCF03D" stop-opacity="0.8877"/>
<stop offset="0.552" stop-color="#FEF8A4" stop-opacity="0.448"/>
<stop offset="0.8571" stop-color="#FFFDE6" stop-opacity="0.1429"/>
<stop offset="1" stop-color="white" stop-opacity="0"/>
</linearGradient>
<linearGradient id="paint11_linear_358_2522" x1="207.085" y1="354.743" x2="207.085" y2="329.678" gradientUnits="userSpaceOnUse">
<stop stop-color="#FCEE21"/>
<stop offset="0.1123" stop-color="#FCF03D" stop-opacity="0.8877"/>
<stop offset="0.552" stop-color="#FEF8A4" stop-opacity="0.448"/>
<stop offset="0.8571" stop-color="#FFFDE6" stop-opacity="0.1429"/>
<stop offset="1" stop-color="white" stop-opacity="0"/>
</linearGradient>
<linearGradient id="paint12_linear_358_2522" x1="208.592" y1="256.192" x2="208.592" y2="239.243" gradientUnits="userSpaceOnUse">
<stop stop-color="#FCEE21"/>
<stop offset="0.1123" stop-color="#FCF03D" stop-opacity="0.8877"/>
<stop offset="0.552" stop-color="#FEF8A4" stop-opacity="0.448"/>
<stop offset="0.8571" stop-color="#FFFDE6" stop-opacity="0.1429"/>
<stop offset="1" stop-color="white" stop-opacity="0"/>
</linearGradient>
<linearGradient id="paint13_linear_358_2522" x1="96.5032" y1="369.81" x2="96.5032" y2="352.861" gradientUnits="userSpaceOnUse">
<stop stop-color="#FCEE21"/>
<stop offset="0.1123" stop-color="#FCF03D" stop-opacity="0.8877"/>
<stop offset="0.552" stop-color="#FEF8A4" stop-opacity="0.448"/>
<stop offset="0.8571" stop-color="#FFFDE6" stop-opacity="0.1429"/>
<stop offset="1" stop-color="white" stop-opacity="0"/>
</linearGradient>
<linearGradient id="paint14_linear_358_2522" x1="219.622" y1="169.65" x2="219.622" y2="155.525" gradientUnits="userSpaceOnUse">
<stop stop-color="#FCEE21"/>
<stop offset="0.1123" stop-color="#FCF03D" stop-opacity="0.8877"/>
<stop offset="0.552" stop-color="#FEF8A4" stop-opacity="0.448"/>
<stop offset="0.8571" stop-color="#FFFDE6" stop-opacity="0.1429"/>
<stop offset="1" stop-color="white" stop-opacity="0"/>
</linearGradient>
<linearGradient id="paint15_linear_358_2522" x1="140.277" y1="285.394" x2="140.277" y2="267.67" gradientUnits="userSpaceOnUse">
<stop stop-color="#FCEE21"/>
<stop offset="0.1123" stop-color="#FCF03D" stop-opacity="0.8877"/>
<stop offset="0.552" stop-color="#FEF8A4" stop-opacity="0.448"/>
<stop offset="0.8571" stop-color="#FFFDE6" stop-opacity="0.1429"/>
<stop offset="1" stop-color="white" stop-opacity="0"/>
</linearGradient>
<linearGradient id="paint16_linear_358_2522" x1="106.414" y1="195.536" x2="106.414" y2="183.003" gradientUnits="userSpaceOnUse">
<stop stop-color="#FCEE21"/>
<stop offset="0.1123" stop-color="#FCF03D" stop-opacity="0.8877"/>
<stop offset="0.552" stop-color="#FEF8A4" stop-opacity="0.448"/>
<stop offset="0.8571" stop-color="#FFFDE6" stop-opacity="0.1429"/>
<stop offset="1" stop-color="white" stop-opacity="0"/>
</linearGradient>
<linearGradient id="paint17_linear_358_2522" x1="0.821997" y1="470.12" x2="302.955" y2="470.12" gradientUnits="userSpaceOnUse">
<stop stop-color="#FBB03B"/>
<stop offset="1" stop-color="#FCEE21"/>
</linearGradient>
<linearGradient id="paint18_linear_358_2522" x1="130.447" y1="487.732" x2="173.331" y2="487.732" gradientUnits="userSpaceOnUse">
<stop stop-color="#FBB03B"/>
<stop offset="1" stop-color="#FCEE21"/>
</linearGradient>
<linearGradient id="paint19_linear_358_2522" x1="142.748" y1="476.529" x2="161.03" y2="476.529" gradientUnits="userSpaceOnUse">
<stop stop-color="#FBB03B"/>
<stop offset="1" stop-color="#FCEE21"/>
</linearGradient>
</defs>
</svg>
