<svg width="53" height="52" viewBox="0 0 53 52" fill="none" xmlns="http://www.w3.org/2000/svg">
<g clip-path="url(#clip0_642_1289)">
<path d="M45.6048 0.212791C45.4865 -0.094783 45.0301 -0.0574737 44.9616 0.26284C44.2743 3.47781 42.2536 5.4188 40.2321 6.58266C36.3016 -2.06853 31.3758 5.62536 26.3683 5.62536C20.8266 5.62536 16.4548 -1.64812 12.482 6.58266C10.4605 5.41698 8.43983 3.47599 7.75345 0.26284C7.68491 -0.0574737 7.22857 -0.094783 7.11026 0.212791C6.17694 2.64608 4.53282 8.63012 9.14029 12.2382C8.49429 14.0418 8.14312 15.9764 8.14312 17.9866V28.9664C8.14312 32.8384 11.3572 36.5475 14.1102 39.0135C13.7046 40.2993 12.8736 41.7617 11.2295 41.2521C10.9393 41.1629 10.7422 41.5287 10.9835 41.7098C12.1403 42.5752 14.144 43.2513 17.0078 41.3449C17.6031 41.7744 17.9721 42.0101 17.9721 42.0101C17.913 42.4287 17.8811 42.8718 17.8811 43.3295C17.8811 45.9366 18.9083 48.0478 20.1759 48.0478C21.1421 48.0478 21.9693 46.8193 22.3073 45.0804C22.4942 47.0523 23.0106 48.7822 23.7336 50.0188C24.4557 51.2555 25.3843 51.9999 26.3984 51.9999C28.4406 51.9999 30.1401 48.9814 30.4988 44.9957C30.6894 45.7556 30.9777 46.3944 31.3288 46.843C31.68 47.2925 32.095 47.5519 32.5392 47.5519C33.8068 47.5519 34.834 45.4398 34.834 42.8336C34.834 42.5533 34.8218 42.2785 34.7992 42.0119C34.7992 42.0119 35.157 41.7826 35.7354 41.364C38.5842 43.2467 40.5785 42.5715 41.7316 41.7098C41.9729 41.5287 41.7757 41.1629 41.4856 41.2521C39.8527 41.758 39.0217 40.3184 38.6133 39.039C41.355 36.5729 44.5719 32.852 44.5719 28.9664V17.9866C44.5719 15.9773 44.2208 14.0427 43.5738 12.2391C48.1822 8.63103 46.5381 2.64699 45.6048 0.212791ZM13.2717 20.2706C13.2717 19.9703 13.3985 19.6973 13.6022 19.4989C13.8069 19.3015 14.0886 19.1786 14.3985 19.1786L23.4594 25.4047C24.1374 25.8706 23.8181 26.9198 22.9862 26.9326H20.1458C16.3646 26.9326 13.2717 23.9351 13.2717 20.2706ZM31.5814 36.0724C30.5476 37.0743 29.158 37.7313 27.6181 37.8442C27.4603 37.856 27.3007 37.8624 27.1401 37.8624H25.5956C25.435 37.8624 25.2754 37.856 25.1176 37.8442C21.8801 37.6058 19.3073 34.965 19.3073 31.7691C19.3073 31.4688 19.4341 31.1959 19.6379 30.9975C19.8426 30.8 20.1242 30.6772 20.4341 30.6772H21.1599C21.0613 30.6772 20.9881 30.7654 21.0087 30.8582L21.6792 33.843C21.7139 33.9995 21.9449 33.9995 21.9806 33.843L22.65 30.8582C22.6716 30.7654 22.5984 30.6772 22.4998 30.6772H30.1138C30.0162 30.6772 29.9429 30.7654 29.9636 30.8582L30.6331 33.843C30.6688 33.9995 30.8997 33.9995 30.9345 33.843L31.6049 30.8582C31.6256 30.7654 31.5523 30.6772 31.4537 30.6772H32.3016C32.9213 30.6772 33.4274 31.1631 33.4284 31.7646C33.4302 33.4426 32.7223 34.9677 31.5814 36.0724ZM32.5692 26.9326H29.7279C28.8969 26.9198 28.5777 25.8706 29.2556 25.4047L38.3166 19.1786C38.6264 19.1786 38.9081 19.3015 39.1119 19.4989C39.3166 19.6973 39.4433 19.9703 39.4433 20.2706C39.4433 23.9351 36.3495 26.9326 32.5692 26.9326Z" fill="white"/>
</g>
<defs>
<clipPath id="clip0_642_1289">
<rect width="40.625" height="52" fill="white" transform="translate(6.04492 0.000976562)"/>
</clipPath>
</defs>
</svg>
