<svg width="53" height="53" viewBox="0 0 53 53" fill="none" xmlns="http://www.w3.org/2000/svg">
<path d="M24.6938 2.09542L22.5771 9.42976C22.258 10.5376 23.0894 11.6431 24.2421 11.6431H28.4755C29.6283 11.6431 30.4597 10.5376 30.1406 9.42976L28.0239 2.09542C27.5408 0.425874 25.1746 0.425874 24.6938 2.09542Z" fill="white"/>
<path d="M7.6807 10.5224L11.3703 17.2051C11.9276 18.214 13.2961 18.4073 14.1117 17.5939L17.1048 14.6008C17.9205 13.7851 17.7272 12.4167 16.7161 11.8594L10.0356 8.16752C8.51436 7.32713 6.84031 9.00117 7.6807 10.5224Z" fill="white"/>
<path d="M1.60959 28.5075L8.94393 30.6243C10.0517 30.9433 11.1573 30.1119 11.1573 28.9592V24.7258C11.1573 23.573 10.0517 22.7416 8.94393 23.0607L1.60959 25.1797C-0.059966 25.6605 -0.059966 28.0267 1.60959 28.5075Z" fill="white"/>
<path d="M10.0359 45.5192L16.7186 41.8296C17.7275 41.2723 17.9207 39.9039 17.1073 39.0882L14.1142 36.0951C13.2986 35.2795 11.9301 35.4727 11.3728 36.4839L7.6832 43.1666C6.84056 44.6856 8.51461 46.3574 10.0359 45.5192Z" fill="white"/>
<path d="M28.0215 51.5911L30.1382 44.2568C30.4572 43.149 29.6258 42.0435 28.4731 42.0435H24.2397C23.087 42.0435 22.2555 43.149 22.5746 44.2568L24.6913 51.5911C25.1745 53.2607 27.5406 53.2607 28.0215 51.5911Z" fill="white"/>
<path d="M45.0336 43.1642L41.344 36.4815C40.7867 35.4726 39.4183 35.2793 38.6026 36.0928L35.6095 39.0858C34.7939 39.9015 34.9871 41.2699 35.9983 41.8272L42.681 45.5169C44.2 46.3573 45.874 44.6855 45.0336 43.1642Z" fill="white"/>
<path d="M51.1053 25.1789L43.7709 23.0622C42.6632 22.7431 41.5576 23.5745 41.5576 24.7272V28.9607C41.5576 30.1134 42.6632 30.9448 43.7709 30.6257L51.1053 28.509C52.7748 28.0259 52.7748 25.6598 51.1053 25.1789Z" fill="white"/>
<path d="M42.6794 8.16753L35.9966 11.8572C34.9877 12.4144 34.7945 13.7829 35.6079 14.5986L38.601 17.5916C39.4166 18.4073 40.7851 18.214 41.3424 17.2029L45.032 10.5202C45.8746 9.00119 44.2006 7.32714 42.6794 8.16753Z" fill="white"/>
<path d="M28.253 14.106H24.46C22.2961 14.106 20.2221 14.9666 18.6919 16.4946L16.0112 19.1753C14.4809 20.7055 13.6226 22.7795 13.6226 24.9434V28.7364C13.6226 30.9003 14.4832 32.9744 16.0112 34.5046L18.6919 37.1853C20.2221 38.7155 22.2961 39.5739 24.46 39.5739H28.253C30.4169 39.5739 32.491 38.7133 34.0212 37.1853L36.7019 34.5046C38.2322 32.9744 39.0905 30.9003 39.0905 28.7364V24.9434C39.0905 22.7795 38.2299 20.7055 36.7019 19.1753L34.0212 16.4946C32.4932 14.9666 30.4169 14.106 28.253 14.106Z" fill="white"/>
</svg>
