<svg width="53" height="53" viewBox="0 0 53 53" fill="none" xmlns="http://www.w3.org/2000/svg">
<path d="M47.2959 32.2841C47.8648 30.3927 48.1728 28.395 48.1728 26.3288V21.5947C48.1728 10.1377 38.6457 0.764648 27.0005 0.764648H25.8897C14.1478 0.764648 4.53979 10.2174 4.53979 21.7695V25.6121C4.53979 27.8929 4.90183 30.094 5.56964 32.1646C3.88324 33.4632 2.79492 35.4807 2.79492 37.7394C2.79492 41.6329 6.03283 44.8206 9.99251 44.8206H11.6115C12.1017 44.8206 12.5806 44.772 13.0438 44.6791C13.2259 46.1701 14.4851 47.3448 16.0276 47.4244V47.681C16.0276 48.4442 16.5493 49.0946 17.2576 49.3026V51.2493C17.2576 52.0833 17.9501 52.7646 18.7978 52.7646H20.6956C21.5433 52.7646 22.2359 52.0833 22.2359 51.2493V49.3733H23.8683V51.2493C23.8683 52.0833 24.5608 52.7646 25.4085 52.7646H27.3063C28.154 52.7646 28.8466 52.0833 28.8466 51.2493V49.3733H30.479V51.2493C30.479 52.0833 31.1716 52.7646 32.0193 52.7646H33.917C34.7647 52.7646 35.4573 52.0833 35.4573 51.2493V49.3026C36.1656 49.0924 36.6872 48.4442 36.6872 47.681V47.4244C38.2297 47.3425 39.4889 46.1701 39.671 44.6791C40.1342 44.772 40.6132 44.8206 41.1034 44.8206H42.7223C46.6798 44.8206 49.9199 41.6351 49.9199 37.7394C49.9199 35.5493 48.8969 33.5849 47.2959 32.2841ZM16.7831 36.1886C12.0814 36.1886 8.2724 32.4389 8.2724 27.8154C8.2724 23.1897 12.0837 19.4423 16.7831 19.4423C21.4848 19.4423 25.2939 23.1919 25.2939 27.8154C25.2939 32.4412 21.4848 36.1886 16.7831 36.1886ZM28.6532 42.562H23.9942C23.0003 42.562 22.3685 41.5156 22.8452 40.6551L25.1747 36.4541C25.6716 35.5582 26.978 35.5582 27.4749 36.4541L29.8045 40.6551C30.2789 41.5134 29.647 42.562 28.6532 42.562ZM35.9317 36.1886C31.23 36.1886 27.421 32.4389 27.421 27.8154C27.421 23.1897 31.2323 19.4423 35.9317 19.4423C40.6312 19.4423 44.4425 23.1919 44.4425 27.8154C44.4447 32.4412 40.6334 36.1886 35.9317 36.1886Z" fill="white"/>
</svg>
